<?xml version="1.0" standalone="no"?><!DOCTYPE svg PUBLIC "-//W3C//DTD SVG 1.1//EN" 	"http://www.w3.org/Graphics/SVG/1.1/DTD/svg11.dtd"><svg width="1920" height="1112" version="1.1"	xmlns="http://www.w3.org/2000/svg"><title>Krona (snapshot) - Viruses</title><defs>	<style type="text/css">	text {font-size: 11px; font-family: sans-serif; dominant-baseline:central}	path {stroke-width:0.27499999999999997;}	path.wedge {stroke:none}	path.line {fill:none;stroke:black;}	line {stroke:black;stroke-width:0.27499999999999997;}	line.tick {stroke-width:0.5499999999999999;}	line.pattern {stroke-width:0.18333333333333332;}	circle {fill:none;stroke:black;stroke-width:0.27499999999999997;}	rect {stroke:black;stroke-width:0.27499999999999997;}	.highlight {stroke:black;stroke-width:1.375;}	.searchHighlight {fill:rgb(255, 255, 100);stroke:none;}	</style><pattern id="hiddenPattern" patternUnits="userSpaceOnUse" x="0" y="0" width="6.6" height="6.6"><line class="pattern" x1="0" y1="0" x2="3.3" y2="3.3"/><line class="pattern" x1="3.3" y1="6.6" x2="6.6" y2="3.3"/></pattern></defs><path class="wedge" fill="rgb(208,114,114)" d=" M 885,644 L 885,1000.8 A 444.8,444.8 0 1,1 980.7116681244145,990.3803823664714 L 903.9357616792906,641.9385648566761 A 88,88 0 1 0 885,644 Z "/><path class="wedge" fill="rgb(212,127,127)" d=" M 885,728.278794402127 L 885,1000.8 A 444.8,444.8 0 1,1 1004.7748065786892,984.370208708586 L 931.3908706769886,721.9152498068856 A 172.27879440212703,172.27879440212703 0 1 0 885,728.278794402127 Z "/><path class="wedge" fill="rgb(212,127,127)" d=" M 885,728.278794402127 L 885,1000.8 A 444.8,444.8 0 1,1 1004.7748065786892,984.370208708586 L 931.3908706769886,721.9152498068856 A 172.27879440212703,172.27879440212703 0 1 0 885,728.278794402127 Z "/><path class="wedge" fill="rgb(212,127,127)" d=" M 885,728.278794402127 L 885,1000.8 A 444.8,444.8 0 1,1 1004.7748065786892,984.370208708586 L 931.3908706769886,721.9152498068856 A 172.27879440212703,172.27879440212703 0 1 0 885,728.278794402127 Z "/><path class="wedge" fill="rgb(212,127,127)" d=" M 885,728.278794402127 L 885,1000.8 A 444.8,444.8 0 1,1 1004.7748065786892,984.370208708586 L 931.3908706769886,721.9152498068856 A 172.27879440212703,172.27879440212703 0 1 0 885,728.278794402127 Z "/><path class="wedge" fill="rgb(212,127,127)" d=" M 885,728.278794402127 L 885,1000.8 A 444.8,444.8 0 1,1 1004.7748065786892,984.370208708586 L 931.3908706769886,721.9152498068856 A 172.27879440212703,172.27879440212703 0 1 0 885,728.278794402127 Z "/><path class="wedge" fill="rgb(212,127,127)" d=" M 954.3061916373553,787.2090846043826 L 1012.7167584677396,982.0697942901998 A 444.8,444.8 0 0,1 1004.7748065786892,984.370208708586 L 949.9964483726433,788.4574169645114 A 241.37313231358286,241.37313231358286 0 0 0 954.3061916373553,787.2090846043826 Z "/><path class="wedge" fill="rgb(216,140,140)" d=" M 885,797.3731323135828 L 885,1000.8 A 444.8,444.8 0 1,1 1304.6764935718859,408.62740843967345 L 1112.7397252963744,476.0274639341585 A 241.37313231358286,241.37313231358286 0 1 0 885,797.3731323135828 Z "/><path class="wedge" fill="rgb(221,153,153)" d=" M 885,855.0388050268806 L 885,1000.8 A 444.8,444.8 0 0,1 613.4036655753143,203.7465810995239 L 702.4059278416389,319.1802125570333 A 299.0388050268806,299.0388050268806 0 0 0 885,855.0388050268806 Z "/><path class="wedge" fill="rgb(225,165,165)" d=" M 885,903.8896029766547 L 885,1000.8 A 444.8,444.8 0 0,1 493.0874316562274,766.360592255745 L 578.4750274220411,720.5284687989773 A 347.88960297665477,347.88960297665477 0 0 0 885,903.8896029766547 Z "/><path class="wedge" fill="rgb(225,170,165)" d=" M 578.4750274220411,720.5284687989773 L 493.0874316562274,766.360592255745 A 444.8,444.8 0 0,1 441.7553669949794,593.1649742667015 L 538.3268898434135,585.0676891687958 A 347.88960297665477,347.88960297665477 0 0 0 578.4750274220411,720.5284687989773 Z "/><path class="wedge" fill="rgb(225,172,165)" d=" M 538.3268898434135,585.0676891687958 L 441.7553669949794,593.1649742667015 A 444.8,444.8 0 0,1 463.5294109706274,413.8395885514053 L 555.3569337145566,444.81265940231674 A 347.88960297665477,347.88960297665477 0 0 0 538.3268898434135,585.0676891687958 Z "/><path class="wedge" fill="rgb(225,174,165)" d=" M 555.3569337145566,444.81265940231674 L 463.5294109706274,413.8395885514053 A 444.8,444.8 0 0,1 531.9068085309214,285.4963250930211 L 608.8366677294565,344.4320681944357 A 347.88960297665477,347.88960297665477 0 0 0 555.3569337145566,444.81265940231674 Z "/><path class="wedge" fill="rgb(225,175,165)" d=" M 608.8366677294565,344.4320681944357 L 531.9068085309214,285.4963250930211 A 444.8,444.8 0 0,1 587.9856912041397,224.89648088472785 L 652.6974146461839,297.0353601412202 A 347.88960297665477,347.88960297665477 0 0 0 608.8366677294565,344.4320681944357 Z "/><path class="wedge" fill="rgb(225,176,165)" d=" M 652.6974146461839,297.0353601412202 L 587.9856912041397,224.89648088472785 A 444.8,444.8 0 0,1 611.2261781178086,205.43626192656768 L 670.8744015287837,281.8150187581422 A 347.88960297665477,347.88960297665477 0 0 0 652.6974146461839,297.0353601412202 Z "/><path class="wedge" fill="rgb(225,177,165)" d=" M 670.8744015287837,281.8150187581422 L 611.2261781178086,205.43626192656768 A 444.8,444.8 0 0,1 613.4036655753143,203.7465810995239 L 672.5774708792296,280.49347561048586 A 347.88960297665477,347.88960297665477 0 0 0 670.8744015287837,281.8150187581422 Z "/><path class="wedge" fill="url(#hiddenPattern)" d=" M 670.8744015287837,281.8150187581422 L 611.2261781178086,205.43626192656768 A 444.8,444.8 0 0,1 613.4036655753143,203.7465810995239 L 672.5774708792296,280.49347561048586 A 347.88960297665477,347.88960297665477 0 0 0 670.8744015287837,281.8150187581422 Z "/><path class="wedge" fill="rgb(221,166,153)" d=" M 702.4059278416389,319.1802125570333 L 613.4036655753143,203.7465810995239 A 444.8,444.8 0 0,1 1267.422415394948,328.84336636696287 L 1142.1023878489177,403.28271520784097 A 299.0388050268806,299.0388050268806 0 0 0 702.4059278416389,319.1802125570333 Z "/><path class="wedge" fill="rgb(221,166,153)" d=" M 1017.384384469291,234.28343125051606 L 1054.262242125391,144.66396536325004 A 444.8,444.8 0 0,1 1267.422415394948,328.84336636696287 L 1184.10247810504,378.3349121220533 A 347.88960297665477,347.88960297665477 0 0 0 1017.384384469291,234.28343125051606 Z "/><path class="wedge" fill="rgb(225,177,165)" d=" M 672.5774708792296,280.49347561048586 L 613.4036655753143,203.7465810995239 A 444.8,444.8 0 0,1 1054.262242125391,144.66396536325004 L 1017.384384469291,234.28343125051606 A 347.88960297665477,347.88960297665477 0 0 0 672.5774708792296,280.49347561048586 Z "/><path class="wedge" fill="rgb(221,175,153)" d=" M 1142.1023878489177,403.28271520784097 L 1267.422415394948,328.84336636696287 A 444.8,444.8 0 0,1 1303.755257816128,406.0297561135941 L 1166.528938615239,455.1750842594859 A 299.0388050268806,299.0388050268806 0 0 0 1142.1023878489177,403.28271520784097 Z "/><path class="wedge" fill="rgb(221,175,153)" d=" M 1142.1023878489177,403.28271520784097 L 1267.422415394948,328.84336636696287 A 444.8,444.8 0 0,1 1303.755257816128,406.0297561135941 L 1166.528938615239,455.1750842594859 A 299.0388050268806,299.0388050268806 0 0 0 1142.1023878489177,403.28271520784097 Z "/><path class="wedge" fill="rgb(225,185,165)" d=" M 1184.10247810504,378.3349121220533 L 1267.422415394948,328.84336636696287 A 444.8,444.8 0 0,1 1303.755257816128,406.0297561135941 L 1212.5193354002686,438.70438713139873 A 347.88960297665477,347.88960297665477 0 0 0 1184.10247810504,378.3349121220533 Z "/><path class="wedge" fill="rgb(216,166,140)" d=" M 1166.528938615239,455.1750842594859 L 1303.755257816128,406.0297561135941 A 444.8,444.8 0 0,1 1304.6764935718859,408.62740843967345 L 1167.1482849271765,456.92148454605535 A 299.0388050268806,299.0388050268806 0 0 0 1166.528938615239,455.1750842594859 Z "/><path class="wedge" fill="url(#hiddenPattern)" d=" M 1166.528938615239,455.1750842594859 L 1303.755257816128,406.0297561135941 A 444.8,444.8 0 0,1 1304.6764935718859,408.62740843967345 L 1167.1482849271765,456.92148454605535 A 299.0388050268806,299.0388050268806 0 0 0 1166.528938615239,455.1750842594859 Z "/><path class="wedge" fill="rgb(216,166,140)" d=" M 1112.7397252963744,476.0274639341585 L 1304.6764935718859,408.62740843967345 A 444.8,444.8 0 0,1 1023.2369044383222,978.7736962623269 L 960.015005902903,785.4204391336086 A 241.37313231358286,241.37313231358286 0 0 0 1112.7397252963744,476.0274639341585 Z "/><path class="wedge" fill="rgb(216,166,140)" d=" M 997.0791739308459,833.2408081125213 L 1051.7101918761311,968.3769536778499 A 444.8,444.8 0 0,1 1023.2369044383222,978.7736962623269 L 977.9365978279023,840.2305326598103 A 299.0388050268806,299.0388050268806 0 0 0 997.0791739308459,833.2408081125213 Z "/><path class="wedge" fill="rgb(221,176,153)" d=" M 1167.1482849271765,456.92148454605535 L 1304.6764935718859,408.62740843967345 A 444.8,444.8 0 0,1 1304.6764935718859,703.3725915603263 L 1167.1482849271765,655.0785154539445 A 299.0388050268806,299.0388050268806 0 0 0 1167.1482849271765,456.92148454605535 Z "/><path class="wedge" fill="rgb(221,179,153)" d=" M 1167.1482849271765,655.0785154539445 L 1304.6764935718859,703.3725915603263 A 444.8,444.8 0 0,1 1249.4905204414079,810.9386210607403 L 1130.0467843444792,727.3951002634993 A 299.0388050268806,299.0388050268806 0 0 0 1167.1482849271765,655.0785154539445 Z "/><path class="wedge" fill="rgb(221,181,153)" d=" M 1130.0467843444792,727.3951002634993 L 1249.4905204414079,810.9386210607403 A 444.8,444.8 0 0,1 1177.888282900243,890.7588590907599 L 1081.9086378706465,781.0582041246914 A 299.0388050268806,299.0388050268806 0 0 0 1130.0467843444792,727.3951002634993 Z "/><path class="wedge" fill="rgb(221,182,153)" d=" M 1081.9086378706465,781.0582041246914 L 1177.888282900243,890.7588590907599 A 444.8,444.8 0 0,1 1122.7303994616461,931.9405500498798 L 1044.8260219729623,808.7446332015833 A 299.0388050268806,299.0388050268806 0 0 0 1081.9086378706465,781.0582041246914 Z "/><path class="wedge" fill="rgb(221,183,153)" d=" M 1044.8260219729623,808.7446332015833 L 1122.7303994616461,931.9405500498798 A 444.8,444.8 0 0,1 1074.4365046565522,958.443599406809 L 1012.358062007564,826.5626192835629 A 299.0388050268806,299.0388050268806 0 0 0 1044.8260219729623,808.7446332015833 Z "/><path class="wedge" fill="rgb(221,184,153)" d=" M 1012.358062007564,826.5626192835629 L 1074.4365046565522,958.443599406809 A 444.8,444.8 0 0,1 1054.2622421253911,967.3360346367499 L 998.7949159652596,832.540998791073 A 299.0388050268806,299.0388050268806 0 0 0 1012.358062007564,826.5626192835629 Z "/><path class="wedge" fill="rgb(221,184,153)" d=" M 998.7949159652596,832.540998791073 L 1054.2622421253911,967.3360346367499 A 444.8,444.8 0 0,1 1051.7101918761311,968.3769536778499 L 997.0791739308459,833.2408081125213 A 299.0388050268806,299.0388050268806 0 0 0 998.7949159652596,832.540998791073 Z "/><path class="wedge" fill="url(#hiddenPattern)" d=" M 998.7949159652596,832.540998791073 L 1054.2622421253911,967.3360346367499 A 444.8,444.8 0 0,1 1051.7101918761311,968.3769536778499 L 997.0791739308459,833.2408081125213 A 299.0388050268806,299.0388050268806 0 0 0 998.7949159652596,832.540998791073 Z "/><path class="wedge" fill="rgb(212,167,127)" d=" M 960.015005902903,785.4204391336086 L 1023.2369044383222,978.7736962623269 A 444.8,444.8 0 0,1 1012.7167584677396,982.0697942901998 L 954.3061916373553,787.2090846043826 A 241.37313231358286,241.37313231358286 0 0 0 960.015005902903,785.4204391336086 Z "/><path class="wedge" fill="url(#hiddenPattern)" d=" M 960.015005902903,785.4204391336086 L 1023.2369044383222,978.7736962623269 A 444.8,444.8 0 0,1 1012.7167584677396,982.0697942901998 L 954.3061916373553,787.2090846043826 A 241.37313231358286,241.37313231358286 0 0 0 960.015005902903,785.4204391336086 Z "/><path class="wedge" fill="rgb(212,169,127)" d=" M 931.3908706769886,721.9152498068856 L 1004.7748065786892,984.370208708586 A 444.8,444.8 0 0,1 980.7116681244145,990.3803823664714 L 922.0707976499339,724.2430948426949 A 172.27879440212703,172.27879440212703 0 0 0 931.3908706769886,721.9152498068856 Z "/><path class="wedge" fill="rgb(212,169,127)" d=" M 931.3908706769886,721.9152498068856 L 1004.7748065786892,984.370208708586 A 444.8,444.8 0 0,1 980.7116681244145,990.3803823664714 L 922.0707976499339,724.2430948426949 A 172.27879440212703,172.27879440212703 0 0 0 931.3908706769886,721.9152498068856 Z "/><path class="wedge" fill="rgb(212,169,127)" d=" M 931.3908706769886,721.9152498068856 L 1004.7748065786892,984.370208708586 A 444.8,444.8 0 0,1 980.7116681244145,990.3803823664714 L 922.0707976499339,724.2430948426949 A 172.27879440212703,172.27879440212703 0 0 0 931.3908706769886,721.9152498068856 Z "/><path class="wedge" fill="rgb(212,169,127)" d=" M 931.3908706769886,721.9152498068856 L 1004.7748065786892,984.370208708586 A 444.8,444.8 0 0,1 980.7116681244145,990.3803823664714 L 922.0707976499339,724.2430948426949 A 172.27879440212703,172.27879440212703 0 0 0 931.3908706769886,721.9152498068856 Z "/><path class="wedge" fill="rgb(212,169,127)" d=" M 931.3908706769886,721.9152498068856 L 1004.7748065786892,984.370208708586 A 444.8,444.8 0 0,1 980.7116681244145,990.3803823664714 L 922.0707976499339,724.2430948426949 A 172.27879440212703,172.27879440212703 0 0 0 931.3908706769886,721.9152498068856 Z "/><path class="wedge" fill="rgb(216,178,140)" d=" M 949.9964483726433,788.4574169645114 L 1004.7748065786892,984.370208708586 A 444.8,444.8 0 0,1 983.4014233400669,989.7789758444374 L 938.3980660425063,791.3925137845096 A 241.37313231358286,241.37313231358286 0 0 0 949.9964483726433,788.4574169645114 Z "/><path class="wedge" fill="rgb(216,178,140)" d=" M 949.9964483726433,788.4574169645114 L 1004.7748065786892,984.370208708586 A 444.8,444.8 0 0,1 983.4014233400669,989.7789758444374 L 938.3980660425063,791.3925137845096 A 241.37313231358286,241.37313231358286 0 0 0 949.9964483726433,788.4574169645114 Z "/><path class="wedge" fill="rgb(221,186,153)" d=" M 965.5245391897863,843.9930650209781 L 1004.7748065786892,984.370208708586 A 444.8,444.8 0 0,1 983.4014233400669,989.7789758444374 L 951.1552249293115,847.6293763091381 A 299.0388050268806,299.0388050268806 0 0 0 965.5245391897863,843.9930650209781 Z "/><path class="wedge" fill="rgb(212,169,127)" d=" M 938.3980660425063,791.3925137845096 L 983.4014233400669,989.7789758444374 A 444.8,444.8 0 0,1 980.7116681244145,990.3803823664714 L 936.9384557872032,791.7188702953396 A 241.37313231358286,241.37313231358286 0 0 0 938.3980660425063,791.3925137845096 Z "/><path class="wedge" fill="url(#hiddenPattern)" d=" M 938.3980660425063,791.3925137845096 L 983.4014233400669,989.7789758444374 A 444.8,444.8 0 0,1 980.7116681244145,990.3803823664714 L 936.9384557872032,791.7188702953396 A 241.37313231358286,241.37313231358286 0 0 0 938.3980660425063,791.3925137845096 Z "/><path class="wedge" fill="rgb(161,208,114)" d=" M 903.9357616792906,641.9385648566761 L 980.7116681244145,990.3803823664714 A 444.8,444.8 0 0,1 890.5122076668911,1000.7658435251487 L 886.0905446822986,643.9932424240402 A 88,88 0 0 0 903.9357616792906,641.9385648566761 Z "/><path class="wedge" fill="rgb(161,208,114)" d=" M 903.9357616792906,641.9385648566761 L 980.7116681244145,990.3803823664714 A 444.8,444.8 0 0,1 890.5122076668911,1000.7658435251487 L 886.0905446822986,643.9932424240402 A 88,88 0 0 0 903.9357616792906,641.9385648566761 Z "/><path class="wedge" fill="rgb(161,208,114)" d=" M 903.9357616792906,641.9385648566761 L 980.7116681244145,990.3803823664714 A 444.8,444.8 0 0,1 890.5122076668911,1000.7658435251487 L 886.0905446822986,643.9932424240402 A 88,88 0 0 0 903.9357616792906,641.9385648566761 Z "/><path class="wedge" fill="rgb(161,208,114)" d=" M 903.9357616792906,641.9385648566761 L 980.7116681244145,990.3803823664714 A 444.8,444.8 0 0,1 890.5122076668911,1000.7658435251487 L 886.0905446822986,643.9932424240402 A 88,88 0 0 0 903.9357616792906,641.9385648566761 Z "/><path class="wedge" fill="rgb(161,208,114)" d=" M 889.2696203604139,728.2258788412133 L 896.0235687619175,1000.6633793463898 A 444.8,444.8 0 0,1 890.5122076668911,1000.7658435251487 L 887.1349741262278,728.2655650039517 A 172.27879440212703,172.27879440212703 0 0 0 889.2696203604139,728.2258788412133 Z "/><path class="wedge" fill="rgb(170,212,127)" d=" M 922.0707976499339,724.2430948426949 L 980.7116681244145,990.3803823664714 A 444.8,444.8 0 0,1 961.7862846669705,994.1220223716709 L 914.7406667019878,725.6922972464325 A 172.27879440212703,172.27879440212703 0 0 0 922.0707976499339,724.2430948426949 Z "/><path class="wedge" fill="rgb(170,212,127)" d=" M 922.0707976499339,724.2430948426949 L 980.7116681244145,990.3803823664714 A 444.8,444.8 0 0,1 961.7862846669705,994.1220223716709 L 914.7406667019878,725.6922972464325 A 172.27879440212703,172.27879440212703 0 0 0 922.0707976499339,724.2430948426949 Z "/><path class="wedge" fill="rgb(178,216,140)" d=" M 936.9384557872032,791.7188702953396 L 980.7116681244145,990.3803823664714 A 444.8,444.8 0 0,1 961.7862846669705,994.1220223716709 L 926.6684938147237,793.7492915364476 A 241.37313231358286,241.37313231358286 0 0 0 936.9384557872032,791.7188702953396 Z "/><path class="wedge" fill="rgb(131,208,114)" d=" M 914.7406667019878,725.6922972464325 L 961.7862846669705,994.1220223716709 A 444.8,444.8 0 0,1 896.0235687619175,1000.6633793463898 L 889.2696203604139,728.2258788412133 A 172.27879440212703,172.27879440212703 0 0 0 914.7406667019878,725.6922972464325 Z "/><path class="wedge" fill="url(#hiddenPattern)" d=" M 914.7406667019878,725.6922972464325 L 961.7862846669705,994.1220223716709 A 444.8,444.8 0 0,1 896.0235687619175,1000.6633793463898 L 889.2696203604139,728.2258788412133 A 172.27879440212703,172.27879440212703 0 0 0 914.7406667019878,725.6922972464325 Z "/><path class="wedge" fill="rgb(114,208,208)" d=" M 886.0905446822986,643.9932424240402 L 890.5122076668911,1000.7658435251487 A 444.8,444.8 0 0,1 887.7561567457108,1000.79146079932 L 885.5452828094033,643.9983105897935 A 88,88 0 0 0 886.0905446822986,643.9932424240402 Z "/><path class="wedge" fill="rgb(114,208,208)" d=" M 886.0905446822986,643.9932424240402 L 890.5122076668911,1000.7658435251487 A 444.8,444.8 0 0,1 887.7561567457108,1000.79146079932 L 885.5452828094033,643.9983105897935 A 88,88 0 0 0 886.0905446822986,643.9932424240402 Z "/><path class="wedge" fill="rgb(114,208,208)" d=" M 886.0905446822986,643.9932424240402 L 890.5122076668911,1000.7658435251487 A 444.8,444.8 0 0,1 887.7561567457108,1000.79146079932 L 885.5452828094033,643.9983105897935 A 88,88 0 0 0 886.0905446822986,643.9932424240402 Z "/><path class="wedge" fill="rgb(114,208,208)" d=" M 886.0905446822986,643.9932424240402 L 890.5122076668911,1000.7658435251487 A 444.8,444.8 0 0,1 887.7561567457108,1000.79146079932 L 885.5452828094033,643.9983105897935 A 88,88 0 0 0 886.0905446822986,643.9932424240402 Z "/><path class="wedge" fill="rgb(114,208,208)" d=" M 886.0905446822986,643.9932424240402 L 890.5122076668911,1000.7658435251487 A 444.8,444.8 0 0,1 887.7561567457108,1000.79146079932 L 885.5452828094033,643.9983105897935 A 88,88 0 0 0 886.0905446822986,643.9932424240402 Z "/><path class="wedge" fill="rgb(114,208,208)" d=" M 886.0905446822986,643.9932424240402 L 890.5122076668911,1000.7658435251487 A 444.8,444.8 0 0,1 887.7561567457108,1000.79146079932 L 885.5452828094033,643.9983105897935 A 88,88 0 0 0 886.0905446822986,643.9932424240402 Z "/><path class="wedge" fill="url(#hiddenPattern)" d=" M 886.0905446822986,643.9932424240402 L 890.5122076668911,1000.7658435251487 A 444.8,444.8 0 0,1 887.7561567457108,1000.79146079932 L 885.5452828094033,643.9983105897935 A 88,88 0 0 0 886.0905446822986,643.9932424240402 Z "/><rect fill="rgb(114,208,208)" x="1881.32" y="1043.9866666666665" width="22" height="22"/><rect fill="url(#hiddenPattern)" style="stroke:none" x="1881.32" y="1043.9866666666665" width="22" height="22"/><path class="line" d="M 889.1342020482889,1000.7807868753146 L 889.8232357230038,1074.9109180212004 A 518.9333333333334,518.9333333333334 0 0,0 1027.4924943052567,1054.9866666666665 L 1422.4666666666667,1054.9866666666665 L 1752.9168424479167,1054.9866666666665"/><text x="1873.9866666666667" y="1054.9866666666665" style="font-color:black;font-weight:normal" text-anchor="end">Phycodnaviridae&#160;&#160;&#160;0.1%</text><path class="wedge" fill="rgb(161,114,208)" d=" M 885.5452828094033,643.9983105897935 L 887.7561567457108,1000.79146079932 A 444.8,444.8 0 0,1 885.0000000000001,1000.8 L 885,644 A 88,88 0 0 0 885.5452828094033,643.9983105897935 Z "/><path class="wedge" fill="rgb(161,114,208)" d=" M 885.5452828094033,643.9983105897935 L 887.7561567457108,1000.79146079932 A 444.8,444.8 0 0,1 885.0000000000001,1000.8 L 885,644 A 88,88 0 0 0 885.5452828094033,643.9983105897935 Z "/><path class="wedge" fill="rgb(161,114,208)" d=" M 885.5452828094033,643.9983105897935 L 887.7561567457108,1000.79146079932 A 444.8,444.8 0 0,1 885.0000000000001,1000.8 L 885,644 A 88,88 0 0 0 885.5452828094033,643.9983105897935 Z "/><path class="wedge" fill="rgb(161,114,208)" d=" M 885.5452828094033,643.9983105897935 L 887.7561567457108,1000.79146079932 A 444.8,444.8 0 0,1 885.0000000000001,1000.8 L 885,644 A 88,88 0 0 0 885.5452828094033,643.9983105897935 Z "/><path class="wedge" fill="rgb(161,114,208)" d=" M 885.5452828094033,643.9983105897935 L 887.7561567457108,1000.79146079932 A 444.8,444.8 0 0,1 885.0000000000001,1000.8 L 885,644 A 88,88 0 0 0 885.5452828094033,643.9983105897935 Z "/><path class="wedge" fill="rgb(161,114,208)" d=" M 885.5452828094033,643.9983105897935 L 887.7561567457108,1000.79146079932 A 444.8,444.8 0 0,1 885.0000000000001,1000.8 L 885,644 A 88,88 0 0 0 885.5452828094033,643.9983105897935 Z "/><path class="wedge" fill="rgb(161,114,208)" d=" M 885.5452828094033,643.9983105897935 L 887.7561567457108,1000.79146079932 A 444.8,444.8 0 0,1 885.0000000000001,1000.8 L 885,644 A 88,88 0 0 0 885.5452828094033,643.9983105897935 Z "/><path class="wedge" fill="rgb(161,114,208)" d=" M 885.5452828094033,643.9983105897935 L 887.7561567457108,1000.79146079932 A 444.8,444.8 0 0,1 885.0000000000001,1000.8 L 885,644 A 88,88 0 0 0 885.5452828094033,643.9983105897935 Z "/><path class="wedge" fill="rgb(161,114,208)" d=" M 885.5452828094033,643.9983105897935 L 887.7561567457108,1000.79146079932 A 444.8,444.8 0 0,1 885.0000000000001,1000.8 L 885,644 A 88,88 0 0 0 885.5452828094033,643.9983105897935 Z "/><path class="wedge" fill="rgb(161,114,208)" d=" M 885.5452828094033,643.9983105897935 L 887.7561567457108,1000.79146079932 A 444.8,444.8 0 0,1 885.0000000000001,1000.8 L 885,644 A 88,88 0 0 0 885.5452828094033,643.9983105897935 Z "/><path class="wedge" fill="rgb(161,114,208)" d=" M 885.5452828094033,643.9983105897935 L 887.7561567457108,1000.79146079932 A 444.8,444.8 0 0,1 885.0000000000001,1000.8 L 885,644 A 88,88 0 0 0 885.5452828094033,643.9983105897935 Z "/><path class="wedge" fill="url(#hiddenPattern)" d=" M 885.5452828094033,643.9983105897935 L 887.7561567457108,1000.79146079932 A 444.8,444.8 0 0,1 885.0000000000001,1000.8 L 885,644 A 88,88 0 0 0 885.5452828094033,643.9983105897935 Z "/><rect fill="rgb(161,114,208)" x="1881.32" y="1073.32" width="22" height="22"/><rect fill="url(#hiddenPattern)" style="stroke:none" x="1881.32" y="1073.32" width="22" height="22"/><path class="line" d="M 886.3780849869363,1000.7978651947071 L 886.6651860258813,1093.464087110271 A 537.4666666666667,537.4666666666667 0 0,0 983.7339626358522,1084.32 L 1411.4666666666667,1084.32 L 1763.3260221354167,1084.32"/><text x="1873.9866666666667" y="1084.32" style="font-color:black;font-weight:normal" text-anchor="end">Torovirus banli&#160;&#160;&#160;0.1%</text><circle cx="885" cy="556" r="88"/><circle cx="885" cy="556" r="444.8"/><text x="885" y="556" text-anchor="middle" style="font-color:black;font-weight:bold" transform="rotate(360,885,556)">Viruses</text><path class="line" d=" M 903.9357616792906,641.9385648566761 A 88,88 0 1 0 885,644"/><line x1="980.7116681244145" y1="990.3803823664714" x2="903.9357616792906" y2="641.9385648566761"/><text x="885" y="435.2249132880617" text-anchor="middle" style="font-color:black;font-weight:normal" transform="rotate(353.7869822485207,885,556)">Monodnaviria</text><line x1="1004.7748065786892" y1="984.370208708586" x2="931.3908706769886" y2="721.9152498068856"/><path class="line" d=" M 931.3908706769886,721.9152498068856 A 172.27879440212703,172.27879440212703 0 1 0 885,728.278794402127"/><text x="885" y="349.1740366421451" text-anchor="middle" style="font-color:black;font-weight:normal" transform="rotate(352.189349112426,885,556)">Microviridae</text><path class="line" d=" M 1112.7397252963744,476.0274639341585 A 241.37313231358286,241.37313231358286 0 1 0 885,797.3731323135828"/><line x1="1304.6764935718859" y1="408.62740843967345" x2="1112.7397252963744" y2="476.0274639341585"/><text x="885" y="297.3271658724278" text-anchor="middle" style="font-color:black;font-weight:normal" transform="rotate(305.3254437869822,885,556)">Gokushovirinae</text><path class="line" d=" M 702.4059278416389,319.1802125570333 A 299.0388050268806,299.0388050268806 0 0 0 885,855.0388050268806"/><line x1="613.4036655753143" y1="203.7465810995239" x2="702.4059278416389" y2="319.1802125570333"/><text x="885" y="869.6940444118128" text-anchor="middle" style="font-color:black;font-weight:normal" transform="rotate(71.18343195266272,885,556)">unclassified Gokushovirinae</text><path class="line" d=" M 578.4750274220411,720.5284687989773 A 347.88960297665477,347.88960297665477 0 0 0 885,903.8896029766547"/><line x1="493.0874316562274" y1="766.360592255745" x2="578.4750274220411" y2="720.5284687989773"/><text x="488.6551985116726" y="556" text-anchor="end" style="font-color:black;font-weight:normal" transform="rotate(-59.11242603550296,885,556)">Gokushovirinae Bog1183_53&#160;&#160;&#160;17%</text><path class="line" d=" M 538.3268898434135,585.0676891687958 A 347.88960297665477,347.88960297665477 0 0 0 578.4750274220411,720.5284687989773"/><line x1="441.7553669949794" y1="593.1649742667015" x2="538.3268898434135" y2="585.0676891687958"/><text x="488.6551985116726" y="556" text-anchor="end" style="font-color:black;font-weight:normal" transform="rotate(-16.508875739644985,885,556)">Gokushovirinae Bog8989_22&#160;&#160;&#160;7%</text><path class="line" d=" M 555.3569337145566,444.81265940231674 A 347.88960297665477,347.88960297665477 0 0 0 538.3268898434135,585.0676891687958"/><line x1="463.5294109706274" y1="413.8395885514053" x2="555.3569337145566" y2="444.81265940231674"/><text x="488.6551985116726" y="556" text-anchor="end" style="font-color:black;font-weight:normal" transform="rotate(6.923076923076916,885,556)">Gokushovirinae Bog5712_52&#160;&#160;&#160;7%</text><path class="line" d=" M 608.8366677294565,344.4320681944357 A 347.88960297665477,347.88960297665477 0 0 0 555.3569337145566,444.81265940231674"/><line x1="531.9068085309214" y1="285.4963250930211" x2="608.8366677294565" y2="344.4320681944357"/><text x="488.6551985116726" y="556" text-anchor="end" style="font-color:black;font-weight:normal" transform="rotate(28.047337278106493,885,556)">Gokushovirinae GAIR4&#160;&#160;&#160;5%</text><path class="line" d=" M 652.6974146461839,297.0353601412202 A 347.88960297665477,347.88960297665477 0 0 0 608.8366677294565,344.4320681944357"/><line x1="587.9856912041397" y1="224.89648088472785" x2="652.6974146461839" y2="297.0353601412202"/><text x="488.6551985116726" y="556" text-anchor="end" style="font-color:black;font-weight:normal" transform="rotate(42.781065088757394,885,556)">Marine gokushovirus&#160;&#160;&#160;3%</text><path class="line" d=" M 670.8744015287837,281.8150187581422 A 347.88960297665477,347.88960297665477 0 0 0 652.6974146461839,297.0353601412202"/><line x1="611.2261781178086" y1="205.43626192656768" x2="670.8744015287837" y2="281.8150187581422"/><text x="488.6551985116726" y="556" text-anchor="end" style="font-color:black;font-weight:normal" transform="rotate(50.05917159763314,885,556)">Gokushovirinae GNX3R&#160;&#160;&#160;1%</text><path class="line" d=" M 672.5774708792296,280.49347561048586 A 347.88960297665477,347.88960297665477 0 0 0 670.8744015287837,281.8150187581422"/><path class="line" d=" M 1142.1023878489177,403.28271520784097 A 299.0388050268806,299.0388050268806 0 0 0 702.4059278416389,319.1802125570333"/><line x1="1267.422415394948" y1="328.84336636696287" x2="1142.1023878489177" y2="403.28271520784097"/><text x="885" y="222.7656364082775" text-anchor="middle" style="font-color:black;font-weight:normal" transform="rotate(370.8284023668639,885,556)">Chlamydiamicrovirus</text><path class="line" d=" M 1017.384384469291,234.28343125051606 A 347.88960297665477,347.88960297665477 0 0 0 672.5774708792296,280.49347561048586"/><line x1="1054.262242125391" y1="144.66396536325004" x2="1017.384384469291" y2="234.28343125051606"/><text x="488.6551985116726" y="556" text-anchor="end" style="font-color:black;font-weight:normal" transform="rotate(82.36686390532546,885,556)">Chlamydiamicrovirus Chp1&#160;&#160;&#160;17%</text><line x1="1303.755257816128" y1="406.0297561135941" x2="1166.528938615239" y2="455.1750842594859"/><path class="line" d=" M 1166.528938615239,455.1750842594859 A 299.0388050268806,299.0388050268806 0 0 0 1142.1023878489177,403.28271520784097"/><text x="885" y="242.3059555881872" text-anchor="middle" style="font-color:black;font-weight:normal" transform="rotate(424.7928994082841,885,556)">Enterogokushovirus EC6098</text><path class="line" d=" M 1212.5193354002686,438.70438713139873 A 347.88960297665477,347.88960297665477 0 0 0 1184.10247810504,378.3349121220533"/><text x="1281.3448014883274" y="556" text-anchor="start" style="font-color:black;font-weight:normal" transform="rotate(334.7928994082841,885,556)">3%&#160;&#160;&#160;Escherichia phage EC6098</text><path class="line" d=" M 1167.1482849271765,456.92148454605535 A 299.0388050268806,299.0388050268806 0 0 0 1166.528938615239,455.1750842594859"/><path class="line" d=" M 960.015005902903,785.4204391336086 A 241.37313231358286,241.37313231358286 0 0 0 1112.7397252963744,476.0274639341585"/><line x1="1023.2369044383222" y1="978.7736962623269" x2="960.015005902903" y2="785.4204391336086"/><text x="885" y="837.7391032128912" text-anchor="middle" style="font-color:black;font-weight:normal" transform="rotate(296.2721893491124,885,556)">unclassified Microviridae</text><path class="line" d=" M 1167.1482849271765,655.0785154539445 A 299.0388050268806,299.0388050268806 0 0 0 1167.1482849271765,456.92148454605535"/><line x1="1304.6764935718859" y1="703.3725915603263" x2="1167.1482849271765" y2="655.0785154539445"/><text x="1256.9194025134402" y="556" text-anchor="start" style="font-color:black;font-weight:normal" transform="rotate(360,885,556)">11%&#160;&#160;&#160;Chimpanzee faeces associated microphage 2</text><path class="line" d=" M 1130.0467843444792,727.3951002634993 A 299.0388050268806,299.0388050268806 0 0 0 1167.1482849271765,655.0785154539445"/><line x1="1249.4905204414079" y1="810.9386210607403" x2="1130.0467843444792" y2="727.3951002634993"/><text x="1256.9194025134402" y="556" text-anchor="start" style="font-color:black;font-weight:normal" transform="rotate(387.1597633136094,885,556)">4%&#160;&#160;&#160;Lepus americanus faeces associated microvirus SHP1 6472</text><path class="line" d=" M 1081.9086378706465,781.0582041246914 A 299.0388050268806,299.0388050268806 0 0 0 1130.0467843444792,727.3951002634993"/><line x1="1177.888282900243" y1="890.7588590907599" x2="1081.9086378706465" y2="781.0582041246914"/><text x="1256.9194025134402" y="556" text-anchor="start" style="font-color:black;font-weight:normal" transform="rotate(401.8934911242603,885,556)">4%&#160;&#160;&#160;Lynx canadensis associated microvirus CLP 9413</text><path class="line" d=" M 1044.8260219729623,808.7446332015833 A 299.0388050268806,299.0388050268806 0 0 0 1081.9086378706465,781.0582041246914"/><line x1="1122.7303994616461" y1="931.9405500498798" x2="1044.8260219729623" y2="808.7446332015833"/><text x="1256.9194025134402" y="556" text-anchor="start" style="font-color:black;font-weight:normal" transform="rotate(413.2544378698225,885,556)">2%&#160;&#160;&#160;Alces alces faeces associated microvirus MP11 5517</text><path class="line" d=" M 1012.358062007564,826.5626192835629 A 299.0388050268806,299.0388050268806 0 0 0 1044.8260219729623,808.7446332015833"/><line x1="1074.4365046565522" y1="958.443599406809" x2="1012.358062007564" y2="826.5626192835629"/><text x="1256.9194025134402" y="556" text-anchor="start" style="font-color:black;font-weight:normal" transform="rotate(421.2426035502958,885,556)">2%&#160;&#160;&#160;Alces alces faeces associated microvirus MP10 5560</text><path class="line" d=" M 998.7949159652596,832.540998791073 A 299.0388050268806,299.0388050268806 0 0 0 1012.358062007564,826.5626192835629"/><line x1="1054.2622421253911" y1="967.3360346367499" x2="998.7949159652596" y2="832.540998791073"/><text x="1256.9194025134402" y="556" text-anchor="start" style="font-color:black;font-weight:normal" transform="rotate(426.2130177514793,885,556)">0.8%&#160;&#160;&#160;Alces alces faeces associated microvirus MP15 5067</text><path class="line" d=" M 997.0791739308459,833.2408081125213 A 299.0388050268806,299.0388050268806 0 0 0 998.7949159652596,832.540998791073"/><line x1="1051.7101918761311" y1="968.3769536778499" x2="997.0791739308459" y2="833.2408081125213"/><path class="line" d=" M 954.3061916373553,787.2090846043826 A 241.37313231358286,241.37313231358286 0 0 0 960.015005902903,785.4204391336086"/><line x1="1012.7167584677396" y1="982.0697942901998" x2="954.3061916373553" y2="787.2090846043826"/><path class="line" d=" M 922.0707976499339,724.2430948426949 A 172.27879440212703,172.27879440212703 0 0 0 931.3908706769886,721.9152498068856"/><text x="885" y="782.567202761128" text-anchor="middle" style="font-color:black;font-weight:normal" transform="rotate(345.9763313609468,885,556)">Genomoviridae</text><line x1="1100.787202761128" y1="556" x2="1108.487202761128" y2="556" class="tick" transform="rotate(435.9763313609468,885,556)"/><line x1="983.4014233400669" y1="989.7789758444374" x2="938.3980660425063" y2="791.3925137845096"/><path class="line" d=" M 938.3980660425063,791.3925137845096 A 241.37313231358286,241.37313231358286 0 0 0 949.9964483726433,788.4574169645114"/><text x="885" y="814.6728341275722" text-anchor="middle" style="font-color:black;font-weight:normal" transform="rotate(345.79881656804736,885,556)">Gemykibivirus cowchi1</text><path class="line" d=" M 951.1552249293115,847.6293763091381 A 299.0388050268806,299.0388050268806 0 0 0 965.5245391897863,843.9930650209781"/><text x="1256.9194025134402" y="556" text-anchor="start" style="font-color:black;font-weight:normal" transform="rotate(435.7988165680473,885,556)">0.8%&#160;&#160;&#160;Cattle blood-associated gemycircularvirus</text><path class="line" d=" M 936.9384557872032,791.7188702953396 A 241.37313231358286,241.37313231358286 0 0 0 938.3980660425063,791.3925137845096"/><line x1="890.5122076668911" y1="1000.7658435251487" x2="886.0905446822986" y2="643.9932424240402"/><path class="line" d=" M 886.0905446822986,643.9932424240402 A 88,88 0 0 0 903.9357616792906,641.9385648566761"/><text x="885" y="695.5037076901888" text-anchor="middle" style="font-color:black;font-weight:normal" transform="rotate(353.43195266272187,885,556)">Caudoviricetes</text><line x1="1013.7237076901888" y1="556" x2="1021.4237076901888" y2="556" class="tick" transform="rotate(443.4319526627219,885,556)"/><line x1="961.7862846669705" y1="994.1220223716709" x2="914.7406667019878" y2="725.6922972464325"/><path class="line" d=" M 914.7406667019878,725.6922972464325 A 172.27879440212703,172.27879440212703 0 0 0 922.0707976499339,724.2430948426949"/><text x="885" y="743.0847239545818" text-anchor="middle" style="font-color:black;font-weight:normal" transform="rotate(348.8165680473373,885,556)">Punavirus P1</text><line x1="1077.4747239545818" y1="556" x2="1085.1747239545819" y2="556" class="tick" transform="rotate(438.8165680473373,885,556)"/><path class="line" d=" M 926.6684938147237,793.7492915364476 A 241.37313231358286,241.37313231358286 0 0 0 936.9384557872032,791.7188702953396"/><text x="1228.0865661567914" y="556" text-anchor="start" style="font-color:black;font-weight:normal" transform="rotate(438.8165680473373,885,556)">0.7%&#160;&#160;&#160;Enterobacteria phage P7</text><line x1="1321.55" y1="556" x2="1338.05" y2="556" class="tick" transform="rotate(444.319526627219,885,556)"/><text x="1340.8" y="556" text-anchor="start" style="font-color:black;font-weight:normal" transform="rotate(444.319526627219,885,556)">14 more</text><path class="line" d=" M 889.2696203604139,728.2258788412133 A 172.27879440212703,172.27879440212703 0 0 0 914.7406667019878,725.6922972464325"/><line x1="896.0235687619175" y1="1000.6633793463898" x2="889.2696203604139" y2="728.2258788412133"/><line x1="887.7561567457108" y1="1000.79146079932" x2="885.5452828094033" y2="643.9983105897935"/><path class="line" d=" M 885.5452828094033,643.9983105897935 A 88,88 0 0 0 886.0905446822986,643.9932424240402"/><line x1="885.0000000000001" y1="1000.8" x2="885" y2="644"/><path class="line" d=" M 885,644 A 88,88 0 0 0 885.5452828094033,643.9983105897935"/></svg>